<?xml version="1.0" standalone="no"?>
<!DOCTYPE svg PUBLIC "-//W3C//DTD SVG 20010904//EN"
 "http://www.w3.org/TR/2001/REC-SVG-20010904/DTD/svg10.dtd">
<svg version="1.0" xmlns="http://www.w3.org/2000/svg"
 width="800px" height="800px" viewBox="0 0 256.000000 256.000000"
 preserveAspectRatio="xMidYMid meet">

<g transform="translate(0.000000,256.000000) scale(0.100000,-0.100000)"
fill="#004D66" stroke="none">
<path d="M367 1573 c92 -152 166 -281 166 -287 0 -9 -263 -463 -319 -553 l-14
-23 208 0 208 0 60 105 c32 58 61 105 64 105 3 0 31 -48 63 -105 l59 -105 210
0 210 0 171 123 c95 68 177 126 184 130 8 5 38 -37 90 -123 l78 -130 277 0
278 0 0 430 c0 407 -1 430 -17 421 -10 -6 -90 -61 -178 -123 l-160 -114 -5
-122 -5 -123 -48 81 c-29 48 -54 79 -61 77 -7 -3 -119 -80 -249 -171 -129 -91
-238 -166 -241 -166 -3 0 10 25 28 56 30 49 57 72 232 196 110 78 201 143 203
145 3 2 0 7 -5 12 -5 5 -81 -42 -184 -114 -96 -68 -176 -122 -178 -120 -2 2
12 28 31 57 27 43 62 74 165 148 73 51 129 97 126 102 -7 10 -25 -1 -141 -84
-44 -32 -84 -58 -88 -58 -3 0 6 23 22 51 19 35 49 66 96 100 37 27 67 53 67
57 0 4 -54 96 -119 205 l-118 198 -228 -385 c-126 -212 -231 -386 -234 -386
-5 0 -108 175 -119 201 -3 7 176 319 299 522 l29 47 -208 0 -207 0 -64 -101
-64 -100 -38 60 c-20 32 -48 78 -61 100 l-23 41 -207 0 -207 0 166 -277z"/>
<path d="M2000 1730 c0 -66 2 -120 5 -120 4 0 309 216 334 237 2 1 -73 3 -167
3 l-172 0 0 -120z"/>
<path d="M2185 1659 c-183 -129 -192 -136 -183 -145 7 -6 343 229 354 248 16
25 -13 8 -171 -103z"/>
<path d="M2180 1553 c-96 -68 -177 -131 -179 -141 -2 -12 0 -14 10 -6 8 6 86
62 174 124 185 131 178 126 174 137 -2 5 -83 -46 -179 -114z"/>
</g>
</svg>
